<svg xmlns="http://www.w3.org/2000/svg" width="144" height="216" viewBox="0 0 144 216">
  <g id="logo" transform="translate(-120 -264)">
    <g id="Untitled-1" transform="translate(128.109 270.803)">
      <path id="Path_596" data-name="Path 596" d="M13.413,43.16l-.093,4.025V43.16Z" transform="translate(23.957 85.867)" fill="#fff"/>
      <g id="Path_11960" transform="translate(1.891 2.197)">
        <path id="Path_597" data-name="Path 597" d="M118.738,34.128A62.938,62.938,0,0,0,107.5,19.545a4.763,4.763,0,0,0-.4-.372l-.372-.31-.124-.093a60.107,60.107,0,0,0-8.607-6.719h-.031l-.093-.062V11.96a.235.235,0,0,0-.124-.062v7.524c.031.031.093.062.124.093a54.366,54.366,0,0,1,10,9.6,53.421,53.421,0,0,1,5.48,8.05,57.267,57.267,0,0,1,0,56.01l-48.8,92.762L44.862,148.471v13.283l19.692,37.495L118.769,96.176A63.433,63.433,0,0,0,118.738,34.128ZM81.212,4.56A62.4,62.4,0,0,0,9.844,95.092l27.432,52.233V134.043l-.031-.031-7.369-14.057-14.614-27.8A56.171,56.171,0,0,1,79.54,10.535a54.508,54.508,0,0,1,10.62,4.18v-6.9A62.845,62.845,0,0,0,81.212,4.56Z" transform="translate(-1.891 -2.197)" fill="#fff"/>
      </g>
      <path id="Path_598" data-name="Path 598" d="M88.923,18.137v72.2H78.4V68.729l-19.506.279V90.341h-10V49.5L39.136,90.341H29.662L19.909,49.5l-1.486,72.915-.093,4.025-.031.96L18.051,140,10.93,126.442V41.575H25.947l8.979,39.012L44.4,40.8H60.221V60.029h18.7V5.35l.093.093h.031l8.607,6.719.124.093.774.588v.093Z" transform="translate(18.947 6.61)" fill="#fff"/>
    </g>
    <rect id="Rectangle_1013" data-name="Rectangle 1013" width="144" height="216" transform="translate(120 264)" fill="none"/>
  </g>
</svg>
